<?xml version="1.0" encoding="UTF-8" standalone="no"?>
<!-- Created with Inkscape (http://www.inkscape.org/) -->

<svg
   width="63.999996"
   height="63.999996"
   viewBox="0 0 16.933332 16.933332"
   version="1.1"
   id="svg1"
   xmlns:inkscape="http://www.inkscape.org/namespaces/inkscape"
   xmlns:sodipodi="http://sodipodi.sourceforge.net/DTD/sodipodi-0.dtd"
   xmlns="http://www.w3.org/2000/svg"
   xmlns:svg="http://www.w3.org/2000/svg">
  <sodipodi:namedview
     id="namedview1"
     pagecolor="#505050"
     bordercolor="#eeeeee"
     borderopacity="1"
     inkscape:showpageshadow="0"
     inkscape:pageopacity="0"
     inkscape:pagecheckerboard="0"
     inkscape:deskcolor="#d1d1d1"
     inkscape:document-units="px" />
  <defs
     id="defs1" />
  <g
     inkscape:label="Layer 1"
     inkscape:groupmode="layer"
     id="layer1">
    <path
       d="m 10.872115,0.61387732 a 2.0464035,2.0464035 0 0 0 -2.9227633,0 L 0.60244352,8.0953932 a 2.1405343,2.1405343 0 0 0 0,2.9773568 l 5.24308498,5.34004 c 0.3652274,0.322868 0.8415294,0.520543 1.3648964,0.520543 h 4.4024991 a 2.0520514,2.0520514 0 0 0 1.468439,-0.620321 l 5.141424,-5.235555 a 2.1386518,2.1386518 0 0 0 0,-2.9773573 L 10.873053,0.61387732 Z M 10.668792,14.279787 9.9345715,15.025303 a 0.29180547,0.29180547 0 0 1 -0.2099043,0.08943 H 9.0968115 A 0.29462939,0.29462939 0 0 1 8.9029169,15.03942 l -0.74836,-0.760575 a 0.30592509,0.30592509 0 0 1 0,-0.425472 l 1.0486156,-1.067442 a 0.29086417,0.29086417 0 0 1 0.4170015,0 l 1.048618,1.068384 a 0.30498379,0.30498379 0 0 1 0,0.425472 z m 0,-4.4796851 -2.9321758,2.9867701 a 0.29368809,0.29368809 0 0 1 -0.2099114,0.08754 H 6.8997934 a 0.29462939,0.29462939 0 0 1 -0.195792,-0.07343 L 5.9575441,12.040414 a 0.30686642,0.30686642 0 0 1 0,-0.426412 L 9.2041153,8.3081287 a 0.29180547,0.29180547 0 0 1 0.416998,0 l 1.0486177,1.0683847 a 0.30310116,0.30310116 0 0 1 0,0.4235885 z m 0,-4.4768606 -5.13013,5.2242597 a 0.29180547,0.29180547 0 0 1 -0.2108542,0.08848 H 4.6999567 A 0.29274679,0.29274679 0 0 1 4.5051059,10.562561 L 3.7577075,9.8001019 a 0.30404249,0.30404249 0 0 1 0,-0.4235885 l 5.445465,-5.5461863 a 0.29180547,0.29180547 0 0 1 0.4170015,0 l 1.048618,1.0674431 a 0.30498379,0.30498379 0 0 1 0,0.4254711 z"
       fill="#2ab14c"
       id="path1"
       style="fill:#2e64b4;fill-opacity:1;stroke-width:0.941306" />
  </g>
</svg>
